<?xml version="1.0" encoding="utf-8"?>
<!-- Generator: Adobe Illustrator 23.0.5, SVG Export Plug-In . SVG Version: 6.00 Build 0)  -->
<svg version="1.1" id="Layer_1" xmlns="http://www.w3.org/2000/svg" xmlns:xlink="http://www.w3.org/1999/xlink" x="0px" y="0px"
	 viewBox="0 0 1080 1080" style="enable-background:new 0 0 1080 1080;" xml:space="preserve">
<style type="text/css">
	.st0{fill:#FFFFFF;}
	.st1{fill:#9BC4F2;}
	.st2{fill:none;stroke:#FFFFFF;stroke-width:1.5;stroke-miterlimit:10;}
	.st3{fill:none;stroke:#9BC4F2;stroke-width:1.5;stroke-miterlimit:10;}
	.st4{fill:#98FB98;}
	.st5{fill:#2A6CB8;}
	.st6{fill:#011A37;}
	.st7{fill:#FFFFFF;stroke:#011A37;stroke-width:1.5;stroke-linecap:round;stroke-miterlimit:10;}
	.st8{fill:#FFFFFF;stroke:#011A37;stroke-width:1.5;stroke-linecap:round;stroke-linejoin:round;}
	.st9{fill:none;stroke:#011A37;stroke-width:1.5;stroke-linecap:round;stroke-miterlimit:10;}
	.st10{fill:none;stroke:#011A37;stroke-width:1.5;stroke-miterlimit:10;}
	.st11{fill:#FFFFFF;stroke:#011A37;stroke-width:1.5;stroke-miterlimit:10;}
	.st12{fill:none;stroke:#FFFFFF;stroke-width:1.5;stroke-linecap:round;stroke-miterlimit:10;}
	.st13{fill:#011A37;stroke:#011A37;stroke-miterlimit:10;}
	.st14{fill:#FFFFFF;stroke:#9BC4F2;stroke-width:1.5;stroke-linecap:round;stroke-miterlimit:10;}
	.st15{fill:none;stroke:#011A37;stroke-linecap:round;stroke-linejoin:round;}
	.st16{fill:none;stroke:#011A37;stroke-width:1.5;stroke-linecap:round;stroke-linejoin:round;}
	.st17{fill:none;stroke:#FFFFFF;stroke-width:1.5;stroke-linecap:round;stroke-linejoin:round;}
	.st18{fill:none;stroke:#2A6CB8;stroke-width:1.5;stroke-linecap:round;stroke-miterlimit:10;}
	.st19{clip-path:url(#SVGID_2_);}
	.st20{fill:none;stroke:#2A6CB8;stroke-width:1.5;stroke-miterlimit:10;}
</style>
<rect class="st0" width="1080" height="1080"/>
<g id="Слой_10">
	<path class="st1" d="M130.2,1092.3c0,0-81.9-128.3-15.8-173.9c62.4-43,103,50.5,181,23.4C470,881.3,594.7,718.6,821.2,761.8
		c169.9,32.4,164.8,267.4,247.8,329.1c27.7,20.6,46.8,189.7,5.7,188.8C748.8,1272.1,130.2,1092.3,130.2,1092.3z"/>
	<path class="st2" d="M498.5,1048.3c0,0,146.1,12.3,138.5-182.8c-6-156.1,184.2-103.6,138.7,18.3"/>
	<path class="st2" d="M316.8,1144.6c0,0,59.4-61.8,91.9-187.3s181.8-11.5,119.1,64"/>
	<path class="st2" d="M532.8,901.4h34.5c4,0,7.3,3.3,7.3,7.3v2.4c0,4-3.3,7.3-7.3,7.3h-34.5c-4,0-7.3-3.3-7.3-7.3v-2.4
		C525.6,904.7,528.8,901.4,532.8,901.4z"/>
	<path class="st0" d="M600.3,918.4h-2.4c-4,0-7.3-3.3-7.3-7.3v-2.4c0-4,3.3-7.3,7.3-7.3h2.4c4,0,7.3,3.3,7.3,7.3v2.4
		C607.5,915.1,604.3,918.4,600.3,918.4z"/>
	<path class="st2" d="M600.3,883.9h-34.5c-4,0-7.3-3.3-7.3-7.3v-2.4c0-4,3.3-7.3,7.3-7.3h34.5c4,0,7.3,3.3,7.3,7.3v2.4
		C607.5,880.6,604.3,883.9,600.3,883.9z"/>
	<path class="st0" d="M532.8,866.9h2.4c4,0,7.3,3.3,7.3,7.3v2.4c0,4-3.3,7.3-7.3,7.3h-2.4c-4,0-7.3-3.3-7.3-7.3v-2.4
		C525.6,870.2,528.8,866.9,532.8,866.9z"/>
</g>
<g id="Слой_12">
	<rect x="681.2" y="587.3" class="st1" width="23.4" height="23.4"/>
	<rect x="715.5" y="506.5" class="st3" width="23.4" height="104.3"/>
	<rect x="749.9" y="529.6" class="st4" width="23.4" height="81.2"/>
	<rect x="784.2" y="587.3" class="st3" width="23.4" height="23.4"/>
	<polyline class="st3" points="781.9,617.4 674.5,617.4 674.5,485.9 814.8,485.9 814.8,581.2 	"/>
	<rect x="841.5" y="535.7" class="st3" width="29.2" height="17.1"/>
	<rect x="493.1" y="627.4" class="st3" width="91.2" height="85.4"/>
	<rect x="674.5" y="626.2" class="st1" width="30.1" height="10.9"/>
	<rect x="674.5" y="645.9" class="st3" width="30.1" height="10.9"/>
	<path class="st3" d="M679.5,665.6h20.2c2.7,0,5,2.2,5,5v0.9c0,2.7-2.2,5-5,5h-20.2c-2.7,0-5-2.2-5-5v-0.9
		C674.5,667.8,676.8,665.6,679.5,665.6z"/>
	<line class="st3" x1="715.5" y1="631.6" x2="739" y2="631.6"/>
	<line class="st3" x1="715.5" y1="651.3" x2="727.3" y2="651.3"/>
	<line class="st3" x1="715.5" y1="671" x2="721.4" y2="671"/>
	<line class="st3" x1="784.2" y1="602.1" x2="797" y2="610.7"/>
	<line class="st3" x1="784.2" y1="593.9" x2="807.7" y2="609.8"/>
	<line class="st3" x1="786.6" y1="587.3" x2="807.7" y2="601.6"/>
	<line class="st3" x1="798.6" y1="587.3" x2="807.7" y2="593.5"/>
	<polyline class="st3" points="284.6,569.7 284.6,494.3 400.7,494.3 400.7,593.8 309.1,593.8 	"/>
	<polygon class="st5" points="570.4,655.3 545.7,682.2 530.4,670.1 502.1,697.7 502.1,712.8 570.4,712.8 	"/>
	<rect x="493.1" y="603.7" class="st3" width="91.2" height="10.3"/>
	<path class="st4" d="M306.1,603.7h89.4c2.8,0,5.1,2.3,5.1,5.1v0c0,2.8-2.3,5.1-5.1,5.1h-89.4c-2.8,0-5.1-2.3-5.1-5.1v0
		C300.9,606,303.2,603.7,306.1,603.7z"/>
	<rect x="385" y="623.9" class="st3" width="15.7" height="10.3"/>
	<circle class="st3" cx="629.6" cy="581.2" r="3.5"/>
	<circle class="st3" cx="629.6" cy="617.4" r="3.5"/>
	<circle class="st3" cx="629.6" cy="617.4" r="3.5"/>
	<circle class="st3" cx="629.6" cy="653.7" r="3.5"/>
	<line class="st3" x1="629.6" y1="584.7" x2="629.6" y2="614"/>
	<circle class="st3" cx="453.1" cy="653.7" r="3.5"/>
	<circle class="st3" cx="453.1" cy="617.4" r="3.5"/>
	<circle class="st3" cx="453.1" cy="617.4" r="3.5"/>
	<circle class="st3" cx="453.1" cy="581.2" r="3.5"/>
	<line class="st3" x1="453.1" y1="650.2" x2="453.1" y2="620.9"/>
	<circle class="st5" cx="285.2" cy="524.8" r="4.7"/>
	<circle class="st5" cx="345.1" cy="510.5" r="4.7"/>
	<circle class="st5" cx="340.8" cy="569.7" r="4.3"/>
	<line class="st3" x1="277.3" y1="525.5" x2="233.9" y2="529.5"/>
	<circle class="st5" cx="225.7" cy="529.5" r="4.5"/>
	<circle class="st3" cx="225.7" cy="529.5" r="8.2"/>
	<line class="st3" x1="337.7" y1="566.8" x2="292.3" y2="530.7"/>
	<line class="st3" x1="344.7" y1="520.1" x2="340.8" y2="565.4"/>
	<circle class="st3" cx="540.1" cy="284.5" r="3.5"/>
	<circle class="st3" cx="540.1" cy="320.7" r="3.5"/>
	<circle class="st3" cx="540.1" cy="320.7" r="3.5"/>
	<line class="st3" x1="540.1" y1="288" x2="540.1" y2="317.2"/>
	<line class="st3" x1="846.1" y1="541.1" x2="865.2" y2="541.1"/>
	<line class="st3" x1="846.1" y1="547" x2="865.2" y2="547"/>
</g>
<g id="Слой_14">
	<path class="st6" d="M611.6,379.9l-33.4,35.9c5.9,5.5,10.7,12.2,14,19.6l44.7-20.1C630.9,401.9,622.3,389.9,611.6,379.9z"/>
	<path class="st3" d="M536.7,350.5c-26,0-51.1,9.2-70.9,26l31.2,37.9c23.5-20.3,58.5-19.7,81.2,1.5l33.4-35.9
		C591.3,361,564.5,350.4,536.7,350.5z"/>
	<path class="st4" d="M645.3,444.1c-1.5-9.9-4.3-19.6-8.4-28.8l-44.7,20.1c2.1,4.7,3.6,9.7,4.5,14.8L645.3,444.1z"/>
	<path class="st5" d="M597.4,463.4c-1.6,30-24.8,54.4-54.8,57.4l4.6,48.8c53.2-5.1,95-47.9,98.9-101.2L597.4,463.4z"/>
</g>
<g id="Слой_11">
	<path class="st7" d="M547.9,784.8c-0.8-10,1.2-21.9,11.8-23.7c2.7-18.1,26-0.1,30.1,7.8c0,0,11.8,14.7,14.5,23
		c2.4,7.5,13.6,38.6,13.6,38.6L593,852.6l-10.1-35.4c-10.5-0.4-20.9-2.5-30.7-6.2C546.6,812.3,548.4,790.1,547.9,784.8z"/>
	<path class="st8" d="M549.6,758.3c-15.5-0.4-10.2,12.8-7.4,14.5c-8.2,1.5-5.5,17.5,0.2,17c-6.5,0.4-7.1,11.8,1.2,12.4
		c-2.4,0.8-5.2,3.5-4.9,5.8c0.8,5.7,17.9,4.2,24.3,0c1.9-1.3,1.7-6.6-0.5-7.2c2.7-1.9,4-5.1,3-10c-0.2-0.8-1-1.3-2.3-1.8
		c4.2-2.6,4.8-9.5,2.5-12.1c2-2.3,3-5.4,2.7-8.4C567.5,763.7,563.7,758.7,549.6,758.3z"/>
	<path class="st7" d="M560.5,757.9c0,0-5.1,18.9-0.8,35.1c0,0,1.4,3.6,7.4-2.4s5-23.3,5-23.3l5.6,1.8"/>
	<path class="st7" d="M557.9,774.4c0,0,0.9,0.1-5.3-0.4"/>
	<path class="st7" d="M591.3,810.7c0,0-1.2,2.3-3.1,2.5"/>
	<path class="st7" d="M579.6,800.6c0,0-6.2-7-7.4-14"/>
	<line class="st9" x1="558.9" y1="789.2" x2="554.8" y2="789.2"/>
	<path class="st8" d="M562.4,800.9c-0.2,0-7.6,0.5-7.6,0.5"/>
</g>
<g id="Слой_16">
	<path class="st7" d="M528.9,778.3c-2.8-10-8.9-20.9-19.9-18.9c-5.6-10.4-25.3,9.1-26.5,18.3c0,0,2.1,5.4-1.2,18.5
		c-0.8,3-3.3,12.8-3.3,12.8c-2.3,7.9-12.6,36.3-12.6,36.3l31.6,4.2l7.8-27.6c10.4-4.3,20.2-9.9,29.3-16.5
		C539.9,804.7,530.3,783.7,528.9,778.3z"/>
	<path class="st8" d="M509,777.1c-1.3,3.3,1.7,9.8,6.7,10.8c-1.1,0.8-1.7,1.7-1.6,2.5c0.7,5.2,3.2,7.8,6.4,8.7
		c-2,1.4-3.5,4.8-1.4,7.5c4.8,6.3,25.7-1.9,24.5-7.7c-0.4-2.3-2-4.2-4.2-5.1c7.9-3.5,3.2-14.4-3.3-12.5c5.6-1.5,2.6-18.1-5.9-16.6
		c2-2.7,3.3-15.5-11.7-9.6l-9.4,4.7"/>
	<path class="st7" d="M507.9,758c0,0,10.9,14.8,17.5,30c0,0-0.1,4-8.1,0.3s-14.7-12.6-14.7-12.6s5.6,10.7,1.1,16.7"/>
	<path class="st7" d="M519.2,770.1l5.8-2.7"/>
	<path class="st7" d="M495.9,818.9c0,0,1.9,1.8,3.9,1.4"/>
	<line class="st9" x1="525" y1="784.7" x2="527.8" y2="783.6"/>
	<path class="st8" d="M523.7,798.4c0.1-0.2,9-2.7,9-2.7"/>
</g>
<g id="Слой_17">
	<path class="st5" d="M279.4,946.1c2.3-2.3,45.4-137.7,45.4-137.7l86.3,98.1c1.5-6.2,29.8-33.5,43.9-59.3c0.9-1.6,7.5-3.4,8.3-4.8
		c4.5-8.2,7.5-13.6,7.5-13.6l25.6,6c3.4,0.8,5.6,4.2,4.8,7.7c0,0.2-0.1,0.4-0.2,0.6l-2.8,8.3l2.2,2c1.8,1.6,2.5,4.1,1.9,6.3
		l-35.7,132.7c-14.7,44.3-23.8,49.5-58.9,60.5l-42.9,7.8C364.7,1060.6,277.1,948.5,279.4,946.1z"/>
	<path class="st6" d="M407.5,1019.6c0,0-12.8-85.2-73.7-93.1s-25.6,90.5-25.6,90.5L407.5,1019.6z"/>
	<path class="st10" d="M411.8,918.4c0,0-8.4,19-1.6,28.5s3.5-18.3,3.5-18.3"/>
	<path class="st10" d="M465.4,845.2c0,0,17,8.8,28.7,6.2"/>
</g>
<g id="Слой_1">
	<path class="st5" d="M356.8,913.1l1.7,77.8c0.2,2.5,1.3,4.9,3,6.8l12.6,5.9c4.6,5,6.9,11.8,6.2,18.6l-1,10.5
		c-0.3,3.3,0.8,6.6,3.1,9l14.1,15.2c0.3,0.3,0.6,0.6,0.9,1c2.8,3.9,3.9,8.9,2.8,13.6l0,0c-1.1,5-5.4,8.7-10.6,9.1
		c-13.6,1-40.7,3.7-62.7,11.1c-43.8,14.8-96.8,37.6-116.5,46.2c-4.7,2.1-10.2,0.8-13.5-3.1l-4-4.6c-2.5-2.9-3.6-6.7-3.1-10.4
		c3.2-25.7-56.8-212.4-77.6-267.1c-1.8-4.6-0.4-9.8,3.3-13c16.1-13.8,60.2-49,97.7-55.7c41.7-7.5,94.9,9.3,111.4,24.6l31.5,102.4
		C356.5,911.5,356.7,912.3,356.8,913.1z"/>
	<path class="st10" d="M279.4,1047.5c0,0,56.1-64,56.5-51.6s-20.3,35.1-20.3,35.1"/>
	<path class="st9" d="M188.3,793.1c0,0,28.3,37.6,67.9,23.7c28-9.8,13-28.8,13-28.8"/>
	<path class="st6" d="M138.6,939c0,0,60.8,91.7,60.5,161.2c-0.1,24.2-27,11.7-36.6-14.5C144.6,1036.6,138.6,939,138.6,939z"/>
	<path class="st9" d="M247.1,795.5c0,0,8.9,5.5,11.3,14.4"/>
	<path class="st9" d="M236.2,796.7c0,0,2.3,15.3,2.9,14.9"/>
	<line class="st9" x1="256.2" y1="789.7" x2="264.5" y2="793.2"/>
	<path class="st9" d="M220.3,806.4c0,0-0.3-7.7,1.3-11"/>
</g>
<g id="Слой_2">
	<path class="st6" d="M191.4,687.1c0,0-26.5-8.4-24.1-32.5s21.7-16.9,21.7-16.9s18.1-53,61.5-44.6c31.3,6,13.3,43.4,13.3,43.4
		s14.5-1.2,14.5,13.3s-25.3,0-25.3,0L191.4,687.1z"/>
	<path class="st11" d="M213.4,783.8l-4.2-40.5c0,0-2.5-5.2,8.1-8.3c13.3-3.9,22.1,19.4,22.1,19.4s13.2,28.8,12.8,30.8
		C252.2,785.2,231.5,799.7,213.4,783.8z"/>
	<path class="st6" d="M219.3,747.9c0,0-7.3-11.3,3.8-11.2c13.8,0.1,18.9,23.9,18.9,23.9s-9.5-0.5-15.3-5
		C224,753.3,221.6,750.7,219.3,747.9z"/>
	<path class="st11" d="M199.2,685.9c0,0-24.6-5.8-24.7,10.5s25.9,9.6,25.9,9.6L199.2,685.9z"/>
	<path class="st11" d="M254.9,682.2c0,0,18.6-8.3,20.3,7.8S256,702.3,256,702.3L254.9,682.2z"/>
	<path class="st7" d="M210.1,742.2c-27.9-33.4-17-96.5-17-96.5c3.8-6.5,59.4-26.3,67,12.4c5.5,28.2,5.6,73.2,1.4,80.8
		c-6,10.5-28.1,14.1-40.3,10.4c-2-0.6-3.8-1.4-5.6-2.5"/>
	<path class="st11" d="M215.4,706.3c0,0,1.4,7.5,16.5,8.4c14.3,0.8,19.9-7.9,19.9-11.6C251.8,701,215.4,706.3,215.4,706.3z"/>
	<path class="st8" d="M233.2,671c0,0,5.3,10.4,6.1,19.8l-5,0.3"/>
	<circle class="st10" cx="206.3" cy="678.1" r="20.4"/>
	<path class="st12" d="M187,682.6c0,0-2.7-10.8,3.9-16.9"/>
	<circle class="st10" cx="259.7" cy="675" r="20.4"/>
	<line class="st9" x1="217.6" y1="709.8" x2="224.7" y2="709.1"/>
	<path class="st7" d="M251.5,704.5l-6.5,1.4"/>
	<path class="st13" d="M195,658.9c1.2,0.9,2.8,1.1,4.1,0.5c4.1-2,8.9-2.2,13.2-0.5c3.9,1.7,5.9-4.2,1.4-6.8s-12.3-3-17.7,1.2
		C192.8,655.6,193.9,658,195,658.9z"/>
	<path class="st13" d="M265.3,657.3c3.6,1.5,6.1-3.5,2.4-5.9c-4.5-2.8-16-3.1-18.7,0.2c-2.3,2.8-0.8,5.5,2.5,5.8
		C255.2,657.7,261.2,655.5,265.3,657.3z"/>
	<path class="st10" d="M226.6,676.9c0,0,6.3-4.5,12.7-0.8"/>
	<circle class="st13" cx="214.9" cy="675.7" r="2.6"/>
	<circle class="st13" cx="259.7" cy="673.6" r="2.6"/>
	<path class="st14" d="M233.4,718.1c0,0,5.7,1.1,10.4-1.6"/>
	<path class="st15" d="M188.7,695.9c-1.9-2.1-4.8-3-7.6-2.5"/>
</g>
<g id="Слой_9">
	<path class="st6" d="M735.7,908l-7.8,80.4l-13,14.2c-2.4,2.6-3.5,6.1-3.2,9.5l1.9,20.6l-18,19.3c-3.1,4-4.3,9.1-3.2,14l1.9,8.6
		c0,0,40.3,1.2,70.8,11.5c54.4,18.4,123.3,49.2,123.3,49.2l9.5-11.1c2.4-2.9,3.5-6.6,3-10.4c-3.3-26.8,98-232.1,84.9-268.8
		c0,0-69.6-60-106.5-69.2c-40.8-10.1-101.8,4.8-118.1,20L735.7,908z"/>
	<path class="st5" d="M824.5,770.5c0,0-6.6,27,6.8,38.9l17.4-12.5l9.2,18.8c0,0,32.1-9.3,39.3-35.7
		C897.2,780,877.7,756.9,824.5,770.5z"/>
	<path class="st11" d="M877.7,780.9l5-51.3c0,0,2.5-5.1-8.1-8.2c-13.2-3.8-22.8,30.3-22.8,30.3s-13.1,28.6-12.6,30.6
		C839.3,782.3,859.8,796.7,877.7,780.9z"/>
	<path class="st6" d="M892.7,679.7c0,0,29.7-4,26.3-28.6s-31.3-19-31.3-19s-7.1-42.8-37.4-38.4c-24.1,3.5-22.6,23.9-22.6,23.9
		s-20.1-14.7-25.2,10c-2.8,13.9,28.2,24.3,28.2,24.3L892.7,679.7z"/>
	<path class="st11" d="M914.1,691.1c4.9,12.7-18.2,19.6-31,12.1S907,672.8,914.1,691.1z"/>
	<path class="st7" d="M890.7,704.1c-3.9,14.5-9.5,27.3-14.7,31.9l-6,4.3c-2.6,1.7-5.4,3.2-8.2,4.5c-14.5,6.7-35.2,0.6-41-8.9
		c-9.3-15.2,10.7-88.4,10.7-88.4c9.4-11,55.3-10,62.4,8.3c2.6,6.8,2.5,18,0.7,30.1"/>
	<path class="st16" d="M890.9,616.9c0,0,4.5,8.2-3.2,15.3"/>
	<path class="st8" d="M847.3,677.7c0,0-9.2,10.6-9.3,21.9h4.6"/>
	<circle class="st13" cx="870.4" cy="683" r="2"/>
	<path class="st6" d="M879.1,672.9c-3-0.9-6.2-1.2-9.4-1.1c-2.3,0.3-4.3-1.4-4.6-3.7c0-0.4,0-0.8,0-1.1l0.1-0.7
		c0.5-2.2,2.2-3.9,4.3-4.3c5.1-1.2,10.4-0.2,14.7,2.7c1.3,1,1.9,2.6,1.5,4.2l0,0C885.1,671.8,882.1,673.6,879.1,672.9z"/>
	<path class="st6" d="M833.1,670.2c-3.4-0.4-6.9-0.2-10.3,0.6c-2.3,0.5-4.6-0.9-5.1-3.2c0-0.1-0.1-0.3-0.1-0.4l-0.1-0.6
		c-0.3-1.9,0.7-3.8,2.4-4.6c4.9-2.3,10.6-2.2,15.5,0.1c1.4,0.7,2.3,2,2.5,3.6l0,0c0.2,2.4-1.6,4.4-4,4.6
		C833.7,670.2,833.4,670.2,833.1,670.2z"/>
	<path class="st6" d="M887.6,685.6c-0.8-12.5,2.2-35.3,2.2-35.3s-53.4,11.8-63.7-1.8s47.5-17.3,47.5-17.3l38.5,30.1
		c0,0-10.9,19-17,28C893.3,691.9,887.9,690.2,887.6,685.6z"/>
	<line class="st17" x1="901.1" y1="675.2" x2="898.1" y2="672.7"/>
	<line class="st17" x1="899.2" y1="678.9" x2="893.1" y2="674.4"/>
	<line class="st17" x1="895.5" y1="682.2" x2="892.2" y2="679.7"/>
	<path class="st16" d="M907.3,692.8c0,0-4.7-3.2-10.5,1.9"/>
	<path class="st6" d="M865.2,719.2c0,0,4.3-11.9-19.1-16c-26.2-4.6-20.2,11.2-20.2,11.2s-4.4,0.6-7-4.2c0,0-16.9,34.7-7,42.8
		c10.4,8.5,37.7,14.9,55.6,6.7c9.9-4.5,22.9-28.8,22.6-53.9C890.2,705.8,882,725,865.2,719.2z"/>
	<path class="st12" d="M857.5,711.9c0,0-9,3.6-17.7,0.7"/>
	<path class="st17" d="M887.7,634.1c0,0,4.8,7.9,2.7,13.3"/>
	<path class="st17" d="M828.4,619.9c0,0,1,13.8,12,21.9"/>
	<path class="st16" d="M834.2,652.6c0,0-14.3-5.5-22.2-0.1"/>
	<line class="st16" x1="876.3" y1="685.6" x2="868.9" y2="685.2"/>
	<circle class="st13" cx="830.5" cy="681.1" r="2"/>
	<line class="st16" x1="836.3" y1="683.7" x2="829" y2="683.3"/>
	<path class="st12" d="M849.6,717.3c0,0-5.8,1-9.8-1"/>
	<path class="st6" d="M820.5,920.8c-2.4-2.4-59.2-124.9-59.2-124.9L680,895.7c-2.1-8.9-67.9-84.9-67.9-84.9l-29.1,25l36.4,174.8
		l113.8,27.5C733.2,1037.9,822.9,923.2,820.5,920.8z"/>
	<path class="st6" d="M665.8,915.6c0-2.3,4.7-45.6,18.7-39.7s1.2,38.6,0,39.7S665.8,915.6,665.8,915.6z"/>
	<path class="st18" d="M741.6,988l-2.3-73.2c0,0-9.8,0.8-9.2-6.9s9.2-4.4,9.2-4.4c1-37.1,15.7-69,27.4-84.7"/>
	<path class="st18" d="M676,896.3c0,0,2.9,22.5,10.7,23s2.1-10.2,2.1-10.2"/>
</g>
<g id="Слой_4">
	<path class="st1" d="M830.1,1051.4c0,6.8,62.9,12.3,104.4,12.3s118.3-5.5,118.3-12.3s-76.8-12.3-118.3-12.3
		S830.1,1044.6,830.1,1051.4z"/>
	<ellipse class="st1" cx="190.6" cy="1040.2" rx="101.4" ry="13.4"/>
	<ellipse class="st1" cx="735.7" cy="1015.5" rx="61.7" ry="8.2"/>
	<path class="st11" d="M896,1030c0,0-37.9-10.4-63.4-10.1c-10,0.1-12-0.4-17.6,2.4c-6.9,3.5-44.1,14.4-42.9,21.2
		c2.3,13.2,55.1,12.2,55.1,12.2c17.7,7.4,45.6-2.8,54.9-3.5l8-3.4"/>
	<path class="st10" d="M333.3,809.3c0,0,21.2,28.3,39.8,94.9"/>
	<ellipse class="st12" cx="875.7" cy="775.9" rx="2.9" ry="3.2"/>
	<path class="st11" d="M781.4,1050.3c0,0,0-7.1,6.5-8c6.5-0.9,20.3-3.5,25.4-6.8"/>
	<rect x="476.3" y="673.5" class="st3" width="22.2" height="25"/>
	<path class="st10" d="M162.7,935.6l7.9-12.4c0,0,5.8,8.2,6.6,3.4c0.9-4.8-3-12.1-3-12.1"/>
	<rect x="-35.1" y="10" class="st0" width="1179.7" height="97.9"/>
	<polygon class="st0" points="314.1,847.9 322.5,865.3 348.9,858.4 340.1,841.6 	"/>
	<polygon class="st6" points="311.4,858.4 314.1,847.9 319.9,859.9 	"/>
	<line class="st9" x1="323.7" y1="855.3" x2="338.3" y2="851.3"/>
	<path class="st0" d="M-35.1,1337.4h1179.7v-256.6c-158.9-50.8-376.8-82.1-617.2-82.1c-213.9,0-410,24.8-562.5,66.1L-35.1,1337.4z"
		/>
</g>
<g id="Слой_15">
	<g>
		<defs>
			<path id="SVGID_1_" d="M531.8,520.8c-33.5-2.7-58.4-32-55.8-65.4c0.9-11.4,5-22.4,11.9-31.6L448.4,395
				c-36.1,48.7-25.8,117.5,22.9,153.6c16.5,12.2,36.2,19.6,56.7,21.2L531.8,520.8z"/>
		</defs>
		<clipPath id="SVGID_2_">
			<use xlink:href="#SVGID_1_"  style="overflow:visible;"/>
		</clipPath>
		<g class="st19">
			<line class="st20" x1="427" y1="402.2" x2="569.6" y2="500.8"/>
			<line class="st20" x1="422.8" y1="408.9" x2="565.5" y2="507.4"/>
			<line class="st20" x1="418.7" y1="415.5" x2="561.3" y2="514.1"/>
			<line class="st20" x1="441.6" y1="383.6" x2="584.3" y2="482.1"/>
			<line class="st20" x1="437.5" y1="390.2" x2="580.1" y2="488.8"/>
			<line class="st20" x1="433.3" y1="396.9" x2="576" y2="495.4"/>
			<line class="st20" x1="414.5" y1="422.2" x2="557.2" y2="520.7"/>
			<line class="st20" x1="410.4" y1="428.9" x2="553" y2="527.4"/>
			<line class="st20" x1="406.3" y1="435.5" x2="548.9" y2="534"/>
			<line class="st20" x1="402.1" y1="442.2" x2="544.7" y2="540.7"/>
			<line class="st20" x1="398" y1="448.8" x2="540.6" y2="547.4"/>
			<line class="st20" x1="393.8" y1="455.5" x2="536.5" y2="554"/>
			<line class="st20" x1="389.7" y1="462.1" x2="532.3" y2="560.7"/>
			<line class="st20" x1="385.5" y1="468.8" x2="528.2" y2="567.3"/>
			<line class="st20" x1="381.4" y1="475.5" x2="524" y2="574"/>
			<line class="st20" x1="377.2" y1="482.1" x2="519.9" y2="580.6"/>
			<line class="st20" x1="373.1" y1="488.8" x2="515.7" y2="587.3"/>
		</g>
	</g>
</g>
<g id="Слой_6">
	<path class="st5" d="M112.7,843.5c0,0-56.5,82.5-61.3,207.6c-0.6,14.5,97.8,5.2,144.9,2.5c3.5-0.2,7-7.2,9.9-7.4
		c8.9-0.6,14.2-1,14.2-1l1.2-39.8c0,0-5.4-1.4-13.4-3.7c-2.3-0.6-1.9-6.4-4.6-7.2c-24.5-6.8-60.3-9.2-65.1-12.5
		c-5.4-3.6,24.2-58.4,27.9-75.3L112.7,843.5z"/>
	<path class="st10" d="M199.1,1005.4c0,0-5.1,22,3,37.4"/>
	<path class="st6" d="M985.9,845.1c0,0,71.8,141.4,57.7,208.9c-6.3,30-173.8,5.9-173.8,5.9l-0.5-25.3c0,0,65.4-35.1,72.4-39.8
		c5.2-3.5-11.6-38.4-15.1-54.7L985.9,845.1z"/>
</g>
<g id="Слой_7">
	<path class="st11" d="M220.4,1044.3l21.2-0.9l28.6,0.9l8-51c0,0,11.6-38.2,1.2-34.8c-2.3,0.8-11.2,20.5-14.3,22.7
		c-8.8,6.5-16.7,14.1-23.6,22.6c-6.7,4.6-14.6,6.8-22.7,6.4"/>
</g>
<g id="Слой_8">
	<path class="st7" d="M220.4,1044.3c0,0,33.4,2.6,56.5,4.2c8.9,0.6,21.6-7.8,22.5-10.8c1.5-5.3-0.3-4.4,0-7.2
		c0.3-3.1,3.9-0.2,3.4-7.7c-0.1-2.3-2.4-2.6-2.5-5.3c0-2,2.8-2.1,1.9-6.4c-0.8-3.6-4.6-2-3.9-3.6c4.2-8.7-0.1-12.4-2.8-13.5
		c-4.5-1.8-16.4,1.2-29-0.7"/>
	<line class="st9" x1="288.2" y1="1010.3" x2="294.8" y2="1008.5"/>
	<line class="st9" x1="289.6" y1="1022" x2="296.7" y2="1019.7"/>
	<line class="st9" x1="290.6" y1="1033.7" x2="295.4" y2="1032.1"/>
	<path class="st18" d="M889.1,1029.3l61.2-24.2c0,0-12-10.3-4.5-10.3h7.4l-20.6-35.5"/>
	<path class="st6" d="M53.9,1018.2c0,0,36.8,14.1,36.4,40.5c0,0-34.8,2.4-38.3-5.5C47.4,1042.8,53.9,1018.2,53.9,1018.2z"/>
	<path class="st11" d="M869.1,1059.9l-15.5-0.7l-21,0.7l-5.8-37.4c0,0-8.5-28-0.9-25.5c1.7,0.6,8.2,15,10.5,16.7
		c6.5,4.8,12.3,10.3,17.3,16.6c4.9,3.4,10.7,5,16.7,4.7"/>
	<path class="st7" d="M869.1,1059.9c0,0-24.5,1.9-41.5,3.1c-6.5,0.4-15.8-5.7-16.5-7.9c-1.1-3.8,0.2-3.3,0-5.3
		c-0.2-2.3-2.8-0.1-2.5-5.7c0.1-1.7,1.8-1.9,1.8-3.9c0-1.4-2.1-1.5-1.4-4.7c0.5-2.6,3.4-1.5,2.8-2.6c-3.1-6.4,0.1-9.1,2-9.9
		c3.3-1.3,12,0.9,21.2-0.5"/>
	<line class="st9" x1="819.4" y1="1035" x2="814.5" y2="1033.6"/>
	<line class="st9" x1="818.3" y1="1043.6" x2="813.1" y2="1041.8"/>
	<line class="st9" x1="817.5" y1="1052.2" x2="814.1" y2="1051"/>
</g>
</svg>
